<?xml version="1.0" encoding="UTF-8" standalone="no" ?>
<!DOCTYPE svg PUBLIC "-//W3C//DTD SVG 1.1//EN" "http://www.w3.org/Graphics/SVG/1.1/DTD/svg11.dtd">
<svg xmlns="http://www.w3.org/2000/svg" xmlns:xlink="http://www.w3.org/1999/xlink" version="1.1" width="102" height="102" viewBox="0 0 102 102" xml:space="preserve">
<desc>Created with Fabric.js 3.6.6</desc>
<defs>
</defs>
<g transform="matrix(1.24 0 0 1.24 51.1 51.1)"  >
<circle style="stroke: rgb(193,193,193); stroke-width: 0; stroke-dasharray: none; stroke-linecap: butt; stroke-dashoffset: 0; stroke-linejoin: miter; stroke-miterlimit: 4; fill: rgb(29,155,240); fill-rule: nonzero; opacity: 1;"  cx="0" cy="0" r="40" />
</g>
<g transform="matrix(0.12 0 0 0.12 51.44 51.33)"  >
<path style="stroke: none; stroke-width: 1; stroke-dasharray: none; stroke-linecap: butt; stroke-dashoffset: 0; stroke-linejoin: miter; stroke-miterlimit: 4; fill: rgb(255,255,255); fill-rule: nonzero; opacity: 1;"  transform=" translate(-256, -256)" d="M 459.37 151.716 c 0.325 4.548 0.325 9.097 0.325 13.645 c 0 138.72 -105.583 298.558 -298.558 298.558 c -59.452 0 -114.68 -17.219 -161.137 -47.106 c 8.447 0.974 16.568 1.299 25.34 1.299 c 49.055 0 94.213 -16.568 130.274 -44.832 c -46.132 -0.975 -84.792 -31.188 -98.112 -72.772 c 6.498 0.974 12.995 1.624 19.818 1.624 c 9.421 0 18.843 -1.3 27.614 -3.573 c -48.081 -9.747 -84.143 -51.98 -84.143 -102.985 v -1.299 c 13.969 7.797 30.214 12.67 47.431 13.319 c -28.264 -18.843 -46.781 -51.005 -46.781 -87.391 c 0 -19.492 5.197 -37.36 14.294 -52.954 c 51.655 63.675 129.3 105.258 216.365 109.807 c -1.624 -7.797 -2.599 -15.918 -2.599 -24.04 c 0 -57.828 46.782 -104.934 104.934 -104.934 c 30.213 0 57.502 12.67 76.67 33.137 c 23.715 -4.548 46.456 -13.32 66.599 -25.34 c -7.798 24.366 -24.366 44.833 -46.132 57.827 c 21.117 -2.273 41.584 -8.122 60.426 -16.243 c -14.292 20.791 -32.161 39.308 -52.628 54.253 z" stroke-linecap="round" />
</g>
</svg>