<svg width="620" height="514" viewBox="0 0 620 514" fill="none" xmlns="http://www.w3.org/2000/svg">
<g clip-path="url(#clip0_100_4)">
<path opacity="0.5" d="M507.698 256.979C507.698 366.164 419.185 454.677 310 454.677C200.815 454.677 112.302 366.164 112.302 256.979C112.302 147.794 200.815 59.2813 310 59.2813C419.185 59.2813 507.698 147.794 507.698 256.979Z" fill="white" fill-opacity="0.5" stroke="white"/>
<path opacity="0.25" d="M565.983 256.979C565.983 398.355 451.376 512.962 310 512.962C168.624 512.962 54.0169 398.355 54.0169 256.979C54.0169 115.604 168.624 0.995972 310 0.995972C451.376 0.995972 565.983 115.604 565.983 256.979Z" stroke="white"/>
<g filter="url(#filter0_d_100_4)">
<path d="M491.157 118.354H131.993C121.553 118.354 113.09 126.818 113.09 137.258V371.975C113.09 382.415 121.553 390.878 131.993 390.878H491.157C501.597 390.878 510.061 382.415 510.061 371.975V137.258C510.061 126.818 501.597 118.354 491.157 118.354Z" fill="#535353"/>
<path d="M492.733 121.505H130.418C121.718 121.505 114.665 128.558 114.665 137.258V373.55C114.665 382.25 121.718 389.303 130.418 389.303H492.733C501.433 389.303 508.485 382.25 508.485 373.55V137.258C508.485 128.558 501.433 121.505 492.733 121.505Z" fill="#1D1D25"/>
<path d="M494.308 130.957H130.418C127.808 130.957 125.692 133.072 125.692 135.682V375.031C125.692 377.641 127.808 379.756 130.418 379.756H494.308C496.918 379.756 499.034 377.641 499.034 375.031V135.682C499.034 133.072 496.918 130.957 494.308 130.957Z" fill="url(#paint0_linear_100_4)"/>
<mask id="mask0_100_4" style="mask-type:luminance" maskUnits="userSpaceOnUse" x="125" y="130" width="375" height="250">
<path d="M494.308 130.957H130.418C127.808 130.957 125.692 133.072 125.692 135.682V375.031C125.692 377.641 127.808 379.756 130.418 379.756H494.308C496.918 379.756 499.034 377.641 499.034 375.031V135.682C499.034 133.072 496.918 130.957 494.308 130.957Z" fill="#F9F6F6"/>
</mask>
<g mask="url(#mask0_100_4)">
<path d="M494.068 175.619H130.179C127.569 175.619 125.453 177.735 125.453 180.345V375.221C125.453 377.831 127.569 379.947 130.179 379.947H494.068C496.678 379.947 498.794 377.831 498.794 375.221V180.345C498.794 177.735 496.678 175.619 494.068 175.619Z" fill="#F9F6F6"/>
</g>
<g opacity="0.098">
<path d="M318.853 107.327H310.788C310.353 107.327 310 107.68 310 108.115C310 108.55 310.353 108.903 310.788 108.903H318.853C319.288 108.903 319.641 108.55 319.641 108.115C319.641 107.68 319.288 107.327 318.853 107.327Z" fill="#4A5166"/>
<path d="M323.39 107.327H322.697C322.262 107.327 321.909 107.68 321.909 108.115C321.909 108.55 322.262 108.903 322.697 108.903H323.39C323.825 108.903 324.178 108.55 324.178 108.115C324.178 107.68 323.825 107.327 323.39 107.327Z" fill="#4A5166"/>
</g>
<path d="M56.3798 387.727H563.546C564.8 387.727 566.002 388.225 566.888 389.112C567.774 389.998 568.272 391.2 568.272 392.453V399.703H51.654V392.453C51.654 391.2 52.1519 389.998 53.0381 389.112C53.9244 388.225 55.1264 387.727 56.3798 387.727V387.727Z" fill="#52526F"/>
<mask id="mask1_100_4" style="mask-type:luminance" maskUnits="userSpaceOnUse" x="51" y="387" width="518" height="13">
<path d="M56.3798 387.727H563.546C564.8 387.727 566.002 388.225 566.888 389.112C567.774 389.998 568.272 391.2 568.272 392.453V399.703H51.654V392.453C51.654 391.2 52.1519 389.998 53.0381 389.112C53.9244 388.225 55.1264 387.727 56.3798 387.727V387.727Z" fill="#2F2F47"/>
</mask>
<g mask="url(#mask1_100_4)">
<path d="M336.402 358.386H283.524C274.824 358.386 267.771 365.439 267.771 374.139V379.159C267.771 387.859 274.824 394.912 283.524 394.912H336.402C345.102 394.912 352.154 387.859 352.154 379.159V374.139C352.154 365.439 345.102 358.386 336.402 358.386Z" fill="#2F2F47"/>
</g>
<path d="M51.654 400.33H568.346C568.346 401.583 567.848 402.785 566.962 403.671C566.076 404.558 564.874 405.055 563.62 405.055H56.3798C55.1264 405.055 53.9244 404.558 53.0381 403.671C52.1519 402.785 51.654 401.583 51.654 400.33Z" fill="#393A56"/>
</g>
</g>
<defs>
<filter id="filter0_d_100_4" x="11.654" y="87.3274" width="596.692" height="377.728" filterUnits="userSpaceOnUse" color-interpolation-filters="sRGB">
<feFlood flood-opacity="0" result="BackgroundImageFix"/>
<feColorMatrix in="SourceAlpha" type="matrix" values="0 0 0 0 0 0 0 0 0 0 0 0 0 0 0 0 0 0 127 0" result="hardAlpha"/>
<feOffset dy="20"/>
<feGaussianBlur stdDeviation="20"/>
<feColorMatrix type="matrix" values="0 0 0 0 0.421822 0 0 0 0 0.554338 0 0 0 0 0.89371 0 0 0 0.243444 0"/>
<feBlend mode="normal" in2="BackgroundImageFix" result="effect1_dropShadow_100_4"/>
<feBlend mode="normal" in="SourceGraphic" in2="effect1_dropShadow_100_4" result="shape"/>
</filter>
<linearGradient id="paint0_linear_100_4" x1="125.692" y1="7046.35" x2="31077.6" y2="27672.8" gradientUnits="userSpaceOnUse">
<stop stop-color="#FF8F71"/>
<stop offset="1" stop-color="#FF3E55"/>
</linearGradient>
<clipPath id="clip0_100_4">
<rect width="620" height="513.714" fill="white"/>
</clipPath>
</defs>
</svg>
